<mxfile host="Electron" agent="Mozilla/5.0 (Windows NT 10.0; Win64; x64) AppleWebKit/537.36 (KHTML, like Gecko) draw.io/25.0.1 Chrome/128.0.6613.186 Electron/32.2.6 Safari/537.36" version="25.0.1">
  <diagram name="usecase" id="fihRv2MlkifekLKJA8Ur">
    <mxGraphModel dx="1434" dy="2005" grid="1" gridSize="10" guides="1" tooltips="1" connect="1" arrows="1" fold="1" page="1" pageScale="1" pageWidth="827" pageHeight="1169" math="0" shadow="0">
      <root>
        <mxCell id="0" />
        <mxCell id="1" parent="0" />
        <mxCell id="kzhW7nwmhwfIJtIOFYl8-4" style="rounded=0;orthogonalLoop=1;jettySize=auto;html=1;exitX=1;exitY=0.3333333333333333;exitDx=0;exitDy=0;exitPerimeter=0;endArrow=none;endFill=0;" edge="1" parent="1" source="kzhW7nwmhwfIJtIOFYl8-1" target="kzhW7nwmhwfIJtIOFYl8-3">
          <mxGeometry relative="1" as="geometry" />
        </mxCell>
        <mxCell id="kzhW7nwmhwfIJtIOFYl8-9" style="rounded=0;orthogonalLoop=1;jettySize=auto;html=1;exitX=1;exitY=0.3333333333333333;exitDx=0;exitDy=0;exitPerimeter=0;endArrow=none;endFill=0;" edge="1" parent="1" source="kzhW7nwmhwfIJtIOFYl8-1" target="kzhW7nwmhwfIJtIOFYl8-6">
          <mxGeometry relative="1" as="geometry" />
        </mxCell>
        <mxCell id="kzhW7nwmhwfIJtIOFYl8-1" value="User" style="shape=umlActor;verticalLabelPosition=bottom;verticalAlign=top;html=1;" vertex="1" parent="1">
          <mxGeometry x="80" y="160" width="30" height="60" as="geometry" />
        </mxCell>
        <mxCell id="kzhW7nwmhwfIJtIOFYl8-2" value="Peer" style="shape=umlActor;verticalLabelPosition=bottom;verticalAlign=top;html=1;" vertex="1" parent="1">
          <mxGeometry x="80" y="440" width="30" height="60" as="geometry" />
        </mxCell>
        <mxCell id="kzhW7nwmhwfIJtIOFYl8-3" value="Send message" style="ellipse;whiteSpace=wrap;html=1;" vertex="1" parent="1">
          <mxGeometry x="290" y="-150" width="140" height="70" as="geometry" />
        </mxCell>
        <mxCell id="kzhW7nwmhwfIJtIOFYl8-5" value="Sign in" style="ellipse;whiteSpace=wrap;html=1;" vertex="1" parent="1">
          <mxGeometry x="290" y="-60" width="140" height="70" as="geometry" />
        </mxCell>
        <mxCell id="kzhW7nwmhwfIJtIOFYl8-6" value="Sign up" style="ellipse;whiteSpace=wrap;html=1;" vertex="1" parent="1">
          <mxGeometry x="290" y="20" width="140" height="70" as="geometry" />
        </mxCell>
        <mxCell id="kzhW7nwmhwfIJtIOFYl8-8" style="rounded=0;orthogonalLoop=1;jettySize=auto;html=1;exitX=1;exitY=0.3333333333333333;exitDx=0;exitDy=0;exitPerimeter=0;endArrow=none;endFill=0;" edge="1" parent="1" source="kzhW7nwmhwfIJtIOFYl8-1" target="kzhW7nwmhwfIJtIOFYl8-5">
          <mxGeometry relative="1" as="geometry">
            <mxPoint x="120" y="190" as="sourcePoint" />
            <mxPoint x="314" y="54" as="targetPoint" />
          </mxGeometry>
        </mxCell>
      </root>
    </mxGraphModel>
  </diagram>
</mxfile>
